<mxfile host="app.diagrams.net" modified="2021-01-10T01:48:35.502Z" agent="5.0 (Macintosh; Intel Mac OS X 10_15_7) AppleWebKit/537.36 (KHTML, like Gecko) Chrome/87.0.4280.88 Safari/537.36" etag="DgYtN2s1juRgpgzFsP9A" version="14.1.8" type="github">
  <diagram id="QNJsTJjV_yyI226NMcfd" name="Page-1">
    <mxGraphModel dx="946" dy="537" grid="1" gridSize="10" guides="1" tooltips="1" connect="1" arrows="1" fold="1" page="1" pageScale="1" pageWidth="827" pageHeight="1169" math="0" shadow="0">
      <root>
        <mxCell id="0" />
        <mxCell id="1" parent="0" />
        <mxCell id="KoIOTppLHJ-QlSFnN-YY-10" style="edgeStyle=orthogonalEdgeStyle;rounded=0;orthogonalLoop=1;jettySize=auto;html=1;exitX=1;exitY=0.5;exitDx=0;exitDy=0;curved=1;entryX=0;entryY=0.5;entryDx=0;entryDy=0;" edge="1" parent="1" source="KoIOTppLHJ-QlSFnN-YY-1" target="KoIOTppLHJ-QlSFnN-YY-6">
          <mxGeometry relative="1" as="geometry">
            <mxPoint x="390" y="230" as="targetPoint" />
          </mxGeometry>
        </mxCell>
        <mxCell id="KoIOTppLHJ-QlSFnN-YY-17" value="链路1" style="edgeLabel;html=1;align=center;verticalAlign=middle;resizable=0;points=[];" vertex="1" connectable="0" parent="KoIOTppLHJ-QlSFnN-YY-10">
          <mxGeometry x="-0.0333" y="-1" relative="1" as="geometry">
            <mxPoint as="offset" />
          </mxGeometry>
        </mxCell>
        <mxCell id="KoIOTppLHJ-QlSFnN-YY-1" value="服务A" style="rounded=0;whiteSpace=wrap;html=1;fillColor=#FF9999;" vertex="1" parent="1">
          <mxGeometry x="160" y="150" width="120" height="40" as="geometry" />
        </mxCell>
        <mxCell id="KoIOTppLHJ-QlSFnN-YY-11" style="edgeStyle=orthogonalEdgeStyle;curved=1;rounded=0;orthogonalLoop=1;jettySize=auto;html=1;exitX=1;exitY=0.5;exitDx=0;exitDy=0;entryX=0;entryY=0.5;entryDx=0;entryDy=0;" edge="1" parent="1" source="KoIOTppLHJ-QlSFnN-YY-2" target="KoIOTppLHJ-QlSFnN-YY-7">
          <mxGeometry relative="1" as="geometry" />
        </mxCell>
        <mxCell id="KoIOTppLHJ-QlSFnN-YY-19" value="链路2" style="edgeLabel;html=1;align=center;verticalAlign=middle;resizable=0;points=[];" vertex="1" connectable="0" parent="KoIOTppLHJ-QlSFnN-YY-11">
          <mxGeometry y="-2" relative="1" as="geometry">
            <mxPoint as="offset" />
          </mxGeometry>
        </mxCell>
        <mxCell id="KoIOTppLHJ-QlSFnN-YY-2" value="服务B" style="rounded=0;whiteSpace=wrap;html=1;fillColor=#99FFCC;" vertex="1" parent="1">
          <mxGeometry x="160" y="230" width="120" height="40" as="geometry" />
        </mxCell>
        <mxCell id="KoIOTppLHJ-QlSFnN-YY-12" style="edgeStyle=orthogonalEdgeStyle;curved=1;rounded=0;orthogonalLoop=1;jettySize=auto;html=1;exitX=1;exitY=0.5;exitDx=0;exitDy=0;" edge="1" parent="1" source="KoIOTppLHJ-QlSFnN-YY-3">
          <mxGeometry relative="1" as="geometry">
            <mxPoint x="411" y="260" as="targetPoint" />
          </mxGeometry>
        </mxCell>
        <mxCell id="KoIOTppLHJ-QlSFnN-YY-20" value="链路3" style="edgeLabel;html=1;align=center;verticalAlign=middle;resizable=0;points=[];" vertex="1" connectable="0" parent="KoIOTppLHJ-QlSFnN-YY-12">
          <mxGeometry x="-0.3555" y="5" relative="1" as="geometry">
            <mxPoint as="offset" />
          </mxGeometry>
        </mxCell>
        <mxCell id="KoIOTppLHJ-QlSFnN-YY-3" value="服务C" style="rounded=0;whiteSpace=wrap;html=1;fillColor=#99FFCC;" vertex="1" parent="1">
          <mxGeometry x="160" y="320" width="120" height="40" as="geometry" />
        </mxCell>
        <mxCell id="KoIOTppLHJ-QlSFnN-YY-4" value="" style="rounded=0;whiteSpace=wrap;html=1;" vertex="1" parent="1">
          <mxGeometry x="400" y="200" width="120" height="60" as="geometry" />
        </mxCell>
        <mxCell id="KoIOTppLHJ-QlSFnN-YY-5" value="服务D" style="rounded=0;whiteSpace=wrap;html=1;fillColor=#D4E1F5;" vertex="1" parent="1">
          <mxGeometry x="400" y="200" width="120" height="20" as="geometry" />
        </mxCell>
        <mxCell id="KoIOTppLHJ-QlSFnN-YY-14" style="edgeStyle=orthogonalEdgeStyle;curved=1;rounded=0;orthogonalLoop=1;jettySize=auto;html=1;exitX=1;exitY=0.5;exitDx=0;exitDy=0;entryX=0;entryY=0.5;entryDx=0;entryDy=0;" edge="1" parent="1" source="KoIOTppLHJ-QlSFnN-YY-6" target="KoIOTppLHJ-QlSFnN-YY-8">
          <mxGeometry relative="1" as="geometry">
            <Array as="points">
              <mxPoint x="560" y="230" />
              <mxPoint x="560" y="180" />
            </Array>
          </mxGeometry>
        </mxCell>
        <mxCell id="KoIOTppLHJ-QlSFnN-YY-15" value="&lt;b&gt;链路1产生慢调用&lt;/b&gt;" style="edgeLabel;html=1;align=center;verticalAlign=middle;resizable=0;points=[];fillColor=#FF0000;strokeColor=#7F00FF;" vertex="1" connectable="0" parent="KoIOTppLHJ-QlSFnN-YY-14">
          <mxGeometry x="0.0857" y="1" relative="1" as="geometry">
            <mxPoint x="-4" y="-33" as="offset" />
          </mxGeometry>
        </mxCell>
        <mxCell id="KoIOTppLHJ-QlSFnN-YY-18" value="链路1" style="edgeLabel;html=1;align=center;verticalAlign=middle;resizable=0;points=[];" vertex="1" connectable="0" parent="KoIOTppLHJ-QlSFnN-YY-14">
          <mxGeometry x="0.5714" y="-1" relative="1" as="geometry">
            <mxPoint as="offset" />
          </mxGeometry>
        </mxCell>
        <mxCell id="KoIOTppLHJ-QlSFnN-YY-6" value="Method#1" style="rounded=0;whiteSpace=wrap;html=1;fillColor=#FF9999;" vertex="1" parent="1">
          <mxGeometry x="400" y="220" width="120" height="20" as="geometry" />
        </mxCell>
        <mxCell id="KoIOTppLHJ-QlSFnN-YY-23" style="edgeStyle=orthogonalEdgeStyle;curved=1;rounded=0;orthogonalLoop=1;jettySize=auto;html=1;exitX=1;exitY=0.5;exitDx=0;exitDy=0;entryX=0;entryY=0.5;entryDx=0;entryDy=0;" edge="1" parent="1" source="KoIOTppLHJ-QlSFnN-YY-7" target="KoIOTppLHJ-QlSFnN-YY-9">
          <mxGeometry relative="1" as="geometry" />
        </mxCell>
        <mxCell id="KoIOTppLHJ-QlSFnN-YY-24" value="链路2" style="edgeLabel;html=1;align=center;verticalAlign=middle;resizable=0;points=[];" vertex="1" connectable="0" parent="KoIOTppLHJ-QlSFnN-YY-23">
          <mxGeometry x="0.0364" y="1" relative="1" as="geometry">
            <mxPoint as="offset" />
          </mxGeometry>
        </mxCell>
        <mxCell id="KoIOTppLHJ-QlSFnN-YY-26" style="edgeStyle=orthogonalEdgeStyle;curved=1;rounded=0;orthogonalLoop=1;jettySize=auto;html=1;exitX=0.75;exitY=1;exitDx=0;exitDy=0;entryX=0;entryY=0.5;entryDx=0;entryDy=0;" edge="1" parent="1" source="KoIOTppLHJ-QlSFnN-YY-7" target="KoIOTppLHJ-QlSFnN-YY-25">
          <mxGeometry relative="1" as="geometry" />
        </mxCell>
        <mxCell id="KoIOTppLHJ-QlSFnN-YY-27" value="链路3" style="edgeLabel;html=1;align=center;verticalAlign=middle;resizable=0;points=[];" vertex="1" connectable="0" parent="KoIOTppLHJ-QlSFnN-YY-26">
          <mxGeometry x="0.419" y="2" relative="1" as="geometry">
            <mxPoint as="offset" />
          </mxGeometry>
        </mxCell>
        <mxCell id="KoIOTppLHJ-QlSFnN-YY-7" value="Method#2" style="rounded=0;whiteSpace=wrap;html=1;fillColor=#99FFCC;" vertex="1" parent="1">
          <mxGeometry x="400" y="240" width="120" height="20" as="geometry" />
        </mxCell>
        <mxCell id="KoIOTppLHJ-QlSFnN-YY-8" value="服务E" style="rounded=0;whiteSpace=wrap;html=1;fillColor=#FF9999;" vertex="1" parent="1">
          <mxGeometry x="630" y="160" width="120" height="40" as="geometry" />
        </mxCell>
        <mxCell id="KoIOTppLHJ-QlSFnN-YY-9" value="服务F" style="rounded=0;whiteSpace=wrap;html=1;fillColor=#99FFCC;" vertex="1" parent="1">
          <mxGeometry x="630" y="230" width="120" height="40" as="geometry" />
        </mxCell>
        <mxCell id="KoIOTppLHJ-QlSFnN-YY-25" value="服务G" style="rounded=0;whiteSpace=wrap;html=1;fillColor=#99FFCC;" vertex="1" parent="1">
          <mxGeometry x="630" y="310" width="120" height="40" as="geometry" />
        </mxCell>
      </root>
    </mxGraphModel>
  </diagram>
</mxfile>
